<?xml version="1.0" standalone="no"?>
<!DOCTYPE svg PUBLIC "-//W3C//DTD SVG 20010904//EN"
 "http://www.w3.org/TR/2001/REC-SVG-20010904/DTD/svg10.dtd">
<svg version="1.0" xmlns="http://www.w3.org/2000/svg"
 width="260.000000pt" height="260.000000pt" viewBox="0 0 260.000000 260.000000"
 preserveAspectRatio="xMidYMid meet">
<metadata>
Created by potrace 1.11, written by Peter Selinger 2001-2013
</metadata>
<g transform="translate(0.000000,260.000000) scale(0.100000,-0.100000)"
fill="#000000" stroke="none">
<path d="M934 2591 c-176 -45 -272 -217 -202 -359 34 -67 91 -111 250 -189
192 -96 243 -148 234 -241 -7 -75 -67 -147 -142 -172 -49 -16 -140 -8 -190 18
-44 23 -104 84 -129 131 -16 32 -39 41 -48 19 -2 -7 -5 -52 -6 -99 l-2 -87 31
-22 c18 -13 63 -33 102 -45 l69 -22 -33 -14 c-84 -34 -158 -141 -158 -228 0
-128 55 -189 265 -291 158 -78 214 -123 235 -186 16 -47 7 -97 -25 -145 -94
-143 -307 -124 -413 36 -55 85 -69 74 -71 -56 l-2 -88 38 -24 c69 -43 141 -62
238 -62 77 0 99 4 150 28 33 16 69 37 81 48 20 19 22 19 26 2 2 -10 3 -119 3
-241 -2 -247 2 -232 -70 -254 -41 -12 -57 -26 -49 -40 3 -4 93 -8 200 -8 180
0 194 1 194 18 0 14 -13 21 -57 30 -32 7 -64 16 -72 21 -13 8 -15 77 -15 443
-1 238 1 443 2 455 4 20 9 21 81 18 94 -4 123 -11 183 -43 122 -65 157 -234
71 -349 -41 -55 -105 -86 -182 -87 -36 -1 -79 3 -95 7 -27 8 -28 7 -21 -20 9
-36 6 -34 66 -47 144 -33 321 55 380 187 28 64 32 191 6 248 -21 47 -78 103
-127 126 -22 10 -40 20 -40 23 0 3 20 13 44 23 24 10 62 33 84 52 108 93 120
279 26 402 -31 40 -106 91 -147 100 l-29 6 34 21 c72 45 107 106 114 199 5 52
1 69 -18 107 -51 99 -168 141 -373 135 -71 -2 -144 -7 -161 -10 -25 -5 -42 1
-82 29 -29 19 -104 60 -167 91 -193 96 -242 171 -174 266 61 86 251 78 328
-15 20 -24 46 -19 74 14 54 64 43 91 -53 125 -51 19 -209 28 -256 16z m626
-601 c61 -21 105 -60 121 -108 16 -49 5 -135 -22 -173 -33 -47 -115 -80 -210
-86 l-79 -6 0 197 0 197 70 -2 c38 -1 93 -10 120 -19z m-322 -431 c1 -53 -1
-60 -16 -53 -9 4 -38 12 -64 17 -52 12 -60 22 -25 31 12 3 38 19 57 35 19 17
38 30 41 31 3 0 6 -27 7 -61z m390 -33 c91 -47 145 -135 145 -238 0 -92 -62
-168 -160 -194 -52 -13 -220 -11 -235 4 -5 5 -7 107 -6 228 l3 219 55 5 c89 8
149 1 198 -24z m-533 -97 c23 -11 53 -31 65 -45 25 -26 49 -31 66 -14 8 8 11
-32 12 -129 l2 -141 -36 -15 c-20 -8 -45 -15 -55 -15 -20 0 -212 94 -261 127
-115 79 -94 214 39 248 59 15 112 10 168 -16z"/>
</g>
</svg>
